<svg width="231" height="40" viewBox="0 0 231 40" fill="none" xmlns="http://www.w3.org/2000/svg">
<path fill-rule="evenodd" clip-rule="evenodd" d="M26.6667 13.9893C26.6667 14.8573 26.108 15.59 25.3333 15.8667V18.656C25.3333 23.0673 21.7447 26.656 17.3333 26.656C12.922 26.656 9.33333 23.0673 9.33333 18.656V15.866C8.55867 15.59 8 14.8573 8 13.9893C8 12.8867 8.89733 11.9893 10 11.9893C11.1027 11.9893 12 12.8867 12 13.9893C12 14.8573 11.4413 15.59 10.6667 15.8667V18.656C10.6667 22.332 13.6573 25.3227 17.3333 25.3227C21.0093 25.3227 24 22.332 24 18.656V15.866C23.2253 15.59 22.6667 14.8573 22.6667 13.9893C22.6667 12.8867 23.564 11.9893 24.6667 11.9893C25.7693 11.9893 26.6667 12.8867 26.6667 13.9893ZM29.5273 5.126L32.3713 7.98933H2.276L5.138 5.12733C5.26333 5.00267 5.33333 4.83267 5.33333 4.656C5.33333 4.47867 5.26267 4.30867 5.13733 4.184L2.27867 1.33333H32.388L29.5293 4.184C29.2687 4.44333 29.268 4.86467 29.5273 5.126ZM31.3333 38.6667H3.33333C2.23067 38.6667 1.33333 37.7647 1.33333 36.656V9.32267H33.3333V36.656C33.3333 37.7647 32.436 38.6667 31.3333 38.6667ZM34 5.98933C34.368 5.98933 34.6667 5.69067 34.6667 5.32267V0.666667C34.6667 0.396667 34.5047 0.154 34.2553 0.0506667C34.174 0.0166667 34.088 0.006 34.0033 0.006C33.9927 0.00533333 33.9833 0 33.9727 0H0.666667C0.657333 0 0.65 0.00466667 0.640667 0.00466667C0.563333 0.008 0.486 0.02 0.411333 0.0506667C0.410667 0.0506667 0.41 0.0513333 0.409333 0.052C0.404667 0.054 0.401333 0.0573333 0.396667 0.0593333C0.328667 0.0893333 0.269333 0.131333 0.216 0.180667C0.199333 0.196667 0.186 0.214 0.170667 0.230667C0.133333 0.274 0.102 0.32 0.0766665 0.370667C0.0666665 0.392 0.0553335 0.411333 0.0466668 0.433333C0.0193334 0.507333 0 0.584667 0 0.666667V5.32267C0 5.69067 0.298667 5.98933 0.666667 5.98933C1.03467 5.98933 1.33333 5.69067 1.33333 5.32267V2.27267L3.72333 4.65667L0.195333 8.184C0.134667 8.24533 0.0853334 8.31867 0.052 8.39933C0.018 8.48 0 8.56667 0 8.656V36.656C0 38.5 1.49533 40 3.33333 40H31.3333C33.1713 40 34.6667 38.5 34.6667 36.656V8.684C34.6667 8.50733 34.5973 8.33867 34.4727 8.214L34.4447 8.18533L34.4433 8.184L30.942 4.658L33.3333 2.27267V5.32267C33.3333 5.69067 33.632 5.98933 34 5.98933Z" fill="#AAA5A5"/>
<path d="M69.696 13.304L69.576 17.264C69.576 19.44 69.64 21.392 69.768 23.12C69.896 24.832 70.184 26.696 70.632 28.712C70.28 29 69.72 29.144 68.952 29.144C67.464 29.144 66.72 28.496 66.72 27.2C66.72 26.128 66.768 24.488 66.864 22.28C66.976 20.072 67.032 18.344 67.032 17.096C66.168 18.344 65.256 19.888 64.296 21.728C63.352 23.552 62.88 24.672 62.88 25.088C62.88 25.504 62.92 25.824 63 26.048C62.648 26.272 62.176 26.384 61.584 26.384C61.008 26.384 60.52 26.224 60.12 25.904C59.736 25.584 59.408 25.144 59.136 24.584C58.88 24.024 58.416 22.928 57.744 21.296C57.088 19.648 56.488 18.232 55.944 17.048C55.528 19.624 55.32 21.904 55.32 23.888C55.32 25.872 55.384 27.48 55.512 28.712C55 28.904 54.488 29 53.976 29C52.952 29 52.44 28.488 52.44 27.464C52.44 26.68 52.616 25.12 52.968 22.784C53.336 20.432 53.52 18.448 53.52 16.832C53.52 15.216 53.432 13.704 53.256 12.296C54.12 12.072 54.792 11.96 55.272 11.96C56.152 11.96 56.744 12.272 57.048 12.896C57.528 13.904 58.232 15.512 59.16 17.72C60.104 19.912 60.872 21.6 61.464 22.784C61.624 22.448 61.992 21.728 62.568 20.624C63.16 19.504 63.648 18.552 64.032 17.768C64.432 16.968 64.832 16.024 65.232 14.936C65.648 13.832 65.912 12.872 66.024 12.056C66.6 11.896 67.16 11.816 67.704 11.816C68.264 11.816 68.736 11.936 69.12 12.176C69.504 12.416 69.696 12.792 69.696 13.304ZM77.4713 12.152C78.1433 11.928 78.7513 11.816 79.2953 11.816C80.1273 11.816 80.7753 12.112 81.2393 12.704C81.7033 13.28 82.0633 14.104 82.3193 15.176C82.3993 15.496 82.5593 16.2 82.7993 17.288C83.0553 18.376 83.2633 19.256 83.4233 19.928C83.9193 22.024 84.3673 23.648 84.7673 24.8C85.1833 25.952 85.8393 26.872 86.7353 27.56C86.5433 28.04 86.2233 28.424 85.7753 28.712C85.3433 29 84.8713 29.144 84.3593 29.144C83.1913 29.144 82.3353 28.264 81.7913 26.504C81.5353 25.688 81.3033 24.888 81.0953 24.104C80.5353 24.296 79.8393 24.392 79.0073 24.392C78.1913 24.392 77.1833 24.304 75.9833 24.128C75.4873 26.064 75.2393 27.52 75.2393 28.496C75.2393 28.704 75.2473 28.856 75.2633 28.952C75.0553 28.984 74.7033 29 74.2073 29C73.7113 29 73.2713 28.848 72.8873 28.544C72.5193 28.224 72.3353 27.776 72.3353 27.2C72.3353 26.4 73.1033 24.056 74.6393 20.168C76.1753 16.28 77.1193 13.608 77.4713 12.152ZM76.5353 22.112C77.1753 22.192 77.8233 22.232 78.4793 22.232C79.1513 22.232 79.8633 22.16 80.6153 22.016C80.4713 21.36 79.9833 18.848 79.1513 14.48C78.1593 17.056 77.2873 19.6 76.5353 22.112ZM96.3089 20.84C97.0289 22.36 97.9409 23.688 99.0449 24.824C100.149 25.96 101.245 26.696 102.333 27.032C102.333 27.704 102.157 28.224 101.805 28.592C101.453 28.96 100.949 29.144 100.293 29.144C99.4449 29.144 98.4769 28.6 97.3889 27.512C96.3009 26.408 95.3489 25.112 94.5329 23.624C93.7329 22.12 93.2609 20.8 93.1169 19.664C94.2689 19.664 95.2129 19.36 95.9489 18.752C96.7009 18.128 97.0769 17.248 97.0769 16.112C97.0769 14.672 96.1809 13.952 94.3889 13.952C93.8129 13.952 93.1089 14.048 92.2769 14.24C92.1649 16.4 92.1089 18.144 92.1089 19.472C92.1089 23.728 92.2769 26.808 92.6129 28.712C92.1009 28.904 91.5569 29 90.9809 29C90.4049 29 89.9009 28.816 89.4689 28.448C89.0529 28.08 88.8449 27.592 88.8449 26.984C88.8449 26.376 88.9249 25.32 89.0849 23.816C89.2449 22.296 89.3249 21.08 89.3249 20.168C89.3249 17.368 89.1249 14.88 88.7249 12.704C90.8849 12.112 92.9409 11.816 94.8929 11.816C98.4609 11.816 100.245 13.088 100.245 15.632C100.245 16.752 99.8609 17.808 99.0929 18.8C98.3409 19.776 97.4129 20.456 96.3089 20.84ZM111.582 19.64C112.414 21.336 113.43 22.912 114.63 24.368C115.846 25.824 116.982 26.712 118.038 27.032C118.038 27.704 117.862 28.224 117.51 28.592C117.158 28.96 116.654 29.144 115.998 29.144C115.134 29.144 114.134 28.544 112.998 27.344C111.878 26.128 110.894 24.768 110.046 23.264C109.198 21.76 108.606 20.44 108.27 19.304C109.854 18.616 111.206 17.552 112.326 16.112C113.446 14.656 114.006 13.224 114.006 11.816C114.694 11.816 115.286 11.936 115.782 12.176C116.294 12.416 116.55 12.8 116.55 13.328C116.55 14.16 116.054 15.168 115.062 16.352C114.07 17.536 112.91 18.632 111.582 19.64ZM108.198 28.712C107.686 28.904 107.142 29 106.566 29C105.99 29 105.486 28.816 105.054 28.448C104.638 28.08 104.43 27.576 104.43 26.936C104.43 26.296 104.51 25.072 104.67 23.264C104.83 21.44 104.91 19.984 104.91 18.896C104.91 16.096 104.742 13.88 104.406 12.248C104.918 12.056 105.462 11.96 106.038 11.96C106.614 11.96 107.11 12.144 107.526 12.512C107.958 12.88 108.174 13.384 108.174 14.024C108.174 14.664 108.094 15.896 107.934 17.72C107.774 19.528 107.694 20.976 107.694 22.064C107.694 24.864 107.862 27.08 108.198 28.712ZM130.981 25.688C131.173 26.12 131.269 26.608 131.269 27.152C131.269 27.696 131.077 28.168 130.693 28.568C130.325 28.952 129.869 29.144 129.325 29.144C127.629 29.144 124.973 29.048 121.357 28.856C121.069 28.84 120.813 28.752 120.589 28.592C120.365 28.416 120.253 28.2 120.253 27.944C120.253 27.096 120.317 25.664 120.445 23.648C120.589 21.632 120.661 19.752 120.661 18.008C120.661 16.248 120.493 14.232 120.157 11.96C121.341 12.056 122.933 12.104 124.933 12.104C126.933 12.104 128.845 11.96 130.669 11.672C130.861 12.024 130.957 12.448 130.957 12.944C130.957 13.424 130.765 13.856 130.381 14.24C130.013 14.608 129.549 14.792 128.989 14.792C128.445 14.792 127.565 14.712 126.349 14.552C125.149 14.392 124.261 14.312 123.685 14.312C123.557 15.928 123.485 17.448 123.469 18.872C124.477 18.968 125.557 19.016 126.709 19.016C127.877 19.016 128.877 18.848 129.709 18.512C129.901 18.864 129.997 19.288 129.997 19.784C129.997 20.264 129.805 20.704 129.421 21.104C129.053 21.488 128.605 21.68 128.077 21.68C127.565 21.68 126.797 21.584 125.773 21.392C124.749 21.184 123.973 21.08 123.445 21.08C123.445 23.608 123.501 25.464 123.613 26.648C124.381 26.712 124.981 26.744 125.413 26.744C127.525 26.744 129.381 26.392 130.981 25.688ZM134.447 11.888L139.511 11.96C142.135 11.96 144.055 11.864 145.271 11.672C145.447 12.008 145.535 12.392 145.535 12.824C145.535 13.256 145.343 13.648 144.959 14C144.575 14.336 144.111 14.504 143.567 14.504L140.807 14.192C140.807 14.304 140.767 14.8 140.687 15.68C140.463 17.84 140.351 20.008 140.351 22.184C140.351 24.36 140.519 26.536 140.855 28.712C140.327 28.904 139.775 29 139.199 29C138.623 29 138.127 28.84 137.711 28.52C137.295 28.184 137.087 27.688 137.087 27.032C137.087 26.36 137.167 25.184 137.327 23.504C137.487 21.824 137.567 20.192 137.567 18.608C137.567 17.008 137.487 15.52 137.327 14.144C135.391 14.24 133.879 14.512 132.791 14.96C132.599 14.592 132.503 14.184 132.503 13.736C132.503 13.272 132.687 12.848 133.055 12.464C133.423 12.08 133.887 11.888 134.447 11.888ZM161.934 11.672C163.326 11.672 164.542 12.08 165.582 12.896C166.622 13.712 167.142 14.768 167.142 16.064C167.142 16.752 166.95 17.32 166.566 17.768C166.182 18.216 165.71 18.44 165.15 18.44C164.59 18.44 164.142 18.368 163.806 18.224C163.854 17.968 163.878 17.696 163.878 17.408C163.862 16.4 163.614 15.584 163.134 14.96C162.654 14.32 161.95 14 161.022 14C160.11 14 159.262 14.296 158.478 14.888C158.014 15.56 157.654 16.44 157.398 17.528C157.142 18.616 157.014 19.688 157.014 20.744C157.014 22.504 157.35 23.984 158.022 25.184C158.71 26.368 159.774 26.96 161.214 26.96C162.542 26.96 163.438 26.456 163.902 25.448C164.334 24.568 164.55 23.4 164.55 21.944C165.366 21.944 166.046 22.096 166.59 22.4C167.134 22.688 167.406 23.168 167.406 23.84C167.406 25.408 166.718 26.712 165.342 27.752C163.966 28.776 162.414 29.288 160.686 29.288C158.43 29.288 156.718 28.544 155.55 27.056C154.382 25.552 153.798 23.52 153.798 20.96C153.798 18.4 154.526 16.216 155.982 14.408C157.454 12.584 159.438 11.672 161.934 11.672ZM173.454 13.904C173.454 15.104 173.334 16.688 173.094 18.656C172.87 20.624 172.758 22.144 172.758 23.216C172.758 24.288 173.046 25.184 173.622 25.904C174.198 26.608 175.054 26.96 176.19 26.96C176.654 26.96 177.214 26.848 177.87 26.624C178.526 26.4 179.046 26.112 179.43 25.76C179.638 23.984 179.742 21.704 179.742 18.92C179.742 16.12 179.542 13.848 179.142 12.104C179.654 11.912 180.198 11.816 180.774 11.816C181.35 11.816 181.846 12 182.262 12.368C182.694 12.736 182.91 13.216 182.91 13.808C182.91 14.4 182.838 15.416 182.694 16.856C182.566 18.296 182.502 19.912 182.502 21.704C182.502 23.48 182.582 25.048 182.742 26.408C180.406 28.328 178.038 29.288 175.638 29.288C173.814 29.288 172.39 28.824 171.366 27.896C170.358 26.952 169.854 25.592 169.854 23.816C169.854 23.256 169.902 22.248 169.998 20.792C170.11 19.32 170.166 18.248 170.166 17.576C170.166 15.16 170.006 13.384 169.686 12.248C170.198 12.056 170.742 11.96 171.318 11.96C171.894 11.96 172.39 12.144 172.806 12.512C173.238 12.88 173.454 13.344 173.454 13.904ZM186.215 12.728C188.519 12.12 190.527 11.816 192.239 11.816C195.903 11.816 197.735 13.088 197.735 15.632C197.735 17.184 197.007 18.368 195.551 19.184C196.527 19.424 197.335 19.888 197.975 20.576C198.615 21.248 198.935 22.096 198.935 23.12C198.935 25.04 198.223 26.528 196.799 27.584C195.375 28.624 193.615 29.144 191.519 29.144C189.423 29.144 187.607 28.728 186.071 27.896C186.567 26.168 186.815 23.84 186.815 20.912C186.815 17.968 186.615 15.24 186.215 12.728ZM189.839 26.552C190.543 26.776 191.247 26.888 191.951 26.888C193.055 26.888 193.967 26.616 194.687 26.072C195.407 25.512 195.767 24.728 195.767 23.72C195.767 21.8 194.727 20.84 192.647 20.84C191.655 20.84 190.647 21.048 189.623 21.464C189.623 23.08 189.695 24.776 189.839 26.552ZM189.599 19.352C189.823 19.304 190.151 19.248 190.583 19.184C191.031 19.12 191.375 19.064 191.615 19.016C191.855 18.968 192.151 18.896 192.503 18.8C192.871 18.704 193.151 18.592 193.343 18.464C193.551 18.32 193.759 18.144 193.967 17.936C194.367 17.536 194.567 16.952 194.567 16.184C194.567 14.696 193.679 13.952 191.903 13.952C191.327 13.952 190.623 14.048 189.791 14.24C189.663 17.52 189.599 19.224 189.599 19.352ZM213.009 20.264C213.009 18.36 212.617 16.824 211.833 15.656C211.065 14.472 209.857 13.88 208.209 13.88C207.217 13.88 206.337 14.2 205.569 14.84C205.137 15.512 204.793 16.416 204.537 17.552C204.297 18.688 204.177 19.768 204.177 20.792C204.177 22.68 204.561 24.192 205.329 25.328C206.097 26.464 207.313 27.032 208.977 27.032C209.889 27.032 210.665 26.664 211.305 25.928C212.441 24.6 213.009 22.712 213.009 20.264ZM208.161 29.288C205.825 29.288 204.049 28.52 202.833 26.984C201.617 25.432 201.009 23.408 201.009 20.912C201.009 18.4 201.761 16.232 203.265 14.408C204.769 12.584 206.681 11.672 209.001 11.672C211.337 11.672 213.113 12.456 214.329 14.024C215.561 15.592 216.177 17.632 216.177 20.144C216.177 22.656 215.425 24.808 213.921 26.6C212.417 28.392 210.497 29.288 208.161 29.288ZM226.33 17.144C226.394 16.824 226.426 16.496 226.426 16.16C226.426 14.608 225.666 13.832 224.146 13.832C223.458 13.832 222.874 13.976 222.394 14.264C221.946 14.792 221.722 15.424 221.722 16.16C221.722 16.64 221.93 17.056 222.346 17.408C222.762 17.744 223.274 18.008 223.882 18.2C224.506 18.392 225.178 18.632 225.898 18.92C226.618 19.208 227.282 19.52 227.89 19.856C228.514 20.176 229.034 20.664 229.45 21.32C229.866 21.96 230.074 22.72 230.074 23.6C230.074 25.28 229.426 26.648 228.13 27.704C226.85 28.76 225.306 29.288 223.498 29.288C222.042 29.288 220.802 28.928 219.778 28.208C218.77 27.472 218.266 26.448 218.266 25.136C218.266 24.464 218.466 23.904 218.866 23.456C219.282 22.992 219.77 22.76 220.33 22.76C220.906 22.76 221.33 22.832 221.602 22.976C221.474 23.456 221.41 23.888 221.41 24.272C221.41 25.136 221.65 25.824 222.13 26.336C222.626 26.832 223.306 27.08 224.17 27.08C225.034 27.08 225.73 26.856 226.258 26.408C226.786 25.96 227.05 25.368 227.05 24.632C227.05 23.88 226.754 23.264 226.162 22.784C225.586 22.304 224.882 21.92 224.05 21.632C223.218 21.344 222.386 21.04 221.554 20.72C220.722 20.4 220.01 19.928 219.418 19.304C218.842 18.664 218.554 17.864 218.554 16.904C218.554 15.4 219.202 14.152 220.498 13.16C221.81 12.168 223.29 11.672 224.938 11.672C226.154 11.672 227.202 11.92 228.082 12.416C228.978 12.896 229.426 13.632 229.426 14.624C229.426 15.344 229.194 15.96 228.73 16.472C228.266 16.968 227.682 17.216 226.978 17.216C226.786 17.216 226.57 17.192 226.33 17.144Z" fill="#AAA5A5"/>
</svg>
